<svg width="100" height="100" viewBox="0 0 100 100" fill="none" xmlns="http://www.w3.org/2000/svg">
<path d="M50 33.333C42.8 33.333 37.878 39.141 39.062 46.243L40.859 56.995C41.569 61.26 45.676 64.743 50 64.743C54.319 64.743 58.435 61.26 59.144 56.995L60.935 46.243C62.119 39.141 57.197 33.333 50 33.333V33.333ZM72.451 69.704L59.922 65.53C57.292 68.098 53.757 69.743 50 69.743C46.243 69.743 42.708 68.098 40.078 65.53L27.552 69.704C25.235 70.478 23.333 73.112 23.333 75.557V86.667H76.667V75.557C76.667 73.112 74.769 70.479 72.451 69.704V69.704Z" fill="#082B45"/>
<path d="M63.333 26.667C60.349 26.667 57.793 27.705 55.866 29.382C58.418 30.313 60.686 31.839 62.425 33.894C65.42 37.429 66.673 42.227 65.866 47.064L64.075 57.816C64.065 57.881 64.036 57.943 64.023 58.008C68.083 57.659 71.806 54.362 72.477 50.329L74.267 39.577C75.452 32.474 70.53 26.667 63.333 26.667V26.667ZM37.571 33.894C39.987 31.042 43.405 29.197 47.214 28.581L47.601 26.243C48.787 19.14 43.865 13.333 36.667 13.333C29.466 13.333 24.544 19.141 25.729 26.243L27.526 36.995C28.079 40.332 30.722 43.164 33.916 44.251C33.903 40.403 35.163 36.738 37.571 33.894ZM25.964 64.961L37.058 61.27C36.546 60.173 36.126 59.031 35.925 57.816L34.541 49.515C31.595 49.024 28.87 47.605 26.745 45.531L14.219 49.705C11.901 50.479 10 53.112 10 55.557V66.667H22.845C23.78 65.925 24.8348 65.3481 25.964 64.961V64.961ZM85.784 63.037L73.255 58.864C71.4503 60.6201 69.2293 61.8891 66.8 62.552L74.03 64.961C78.385 66.416 81.667 70.97 81.667 75.557V80H90V68.89C90 66.445 88.103 63.812 85.784 63.037Z" fill="#082B45"/>
</svg>
