<svg width="64" height="64" viewBox="0 0 64 64" fill="none" xmlns="http://www.w3.org/2000/svg">
<path d="M64 0H0V64H64V0Z" fill="#F7DF1E"/>
<path d="M42.9918 50.0003C44.2809 52.1052 45.9581 53.6524 48.9245 53.6524C51.4164 53.6524 53.0083 52.4069 53.0083 50.686C53.0083 48.6238 51.3727 47.8934 48.6299 46.6936L47.1264 46.0486C42.7866 44.1997 39.9035 41.8835 39.9035 36.987C39.9035 32.4765 43.3402 29.0428 48.7111 29.0428C52.5349 29.0428 55.2838 30.3736 57.2648 33.8581L52.5816 36.8651C51.5505 35.0162 50.4381 34.2878 48.7111 34.2878C46.9496 34.2878 45.8332 35.4053 45.8332 36.8651C45.8332 38.6693 46.9506 39.3997 49.5309 40.5171L51.0344 41.1612C56.1443 43.3524 59.0294 45.5863 59.0294 50.6088C59.0294 56.0234 54.7759 58.9898 49.0636 58.9898C43.4784 58.9898 39.87 56.3282 38.1044 52.8397L42.9918 50.0003ZM21.7468 50.5214C22.6916 52.1976 23.551 53.6148 25.6173 53.6148C27.5932 53.6148 28.8396 52.8417 28.8396 49.8357V29.3862H34.8536V49.917C34.8536 56.1443 31.2026 58.9786 25.8733 58.9786C21.058 58.9786 18.2695 56.4867 16.8513 53.4853L21.7468 50.5214Z" fill="black"/>
</svg>
