<svg width="32" height="32" viewBox="0 0 32 32" fill="none" xmlns="http://www.w3.org/2000/svg">
<path d="M22.6667 14.6667H9.33334C7.86058 14.6667 6.66667 15.8606 6.66667 17.3334V25.3334C6.66667 26.8061 7.86058 28 9.33334 28H22.6667C24.1394 28 25.3333 26.8061 25.3333 25.3334V17.3334C25.3333 15.8606 24.1394 14.6667 22.6667 14.6667Z" stroke="#082B45" stroke-width="2" stroke-linecap="round" stroke-linejoin="round"/>
<path d="M16 22.6667C16.7364 22.6667 17.3333 22.0697 17.3333 21.3333C17.3333 20.597 16.7364 20 16 20C15.2636 20 14.6667 20.597 14.6667 21.3333C14.6667 22.0697 15.2636 22.6667 16 22.6667Z" fill="#082B45" stroke="#082B45" stroke-width="2" stroke-linecap="round" stroke-linejoin="round"/>
<path d="M10.6667 14.6667V8.00002C10.6667 6.58553 11.2286 5.22898 12.2288 4.22878C13.229 3.22859 14.5855 2.66669 16 2.66669C17.4145 2.66669 18.771 3.22859 19.7712 4.22878C20.7714 5.22898 21.3333 6.58553 21.3333 8.00002" stroke="#082B45" stroke-width="2" stroke-linecap="round" stroke-linejoin="round"/>
</svg>
