<svg width="83" height="64" viewBox="0 0 83 64" fill="none" xmlns="http://www.w3.org/2000/svg">
<g clip-path="url(#clip0_1389_14239)">
<path fill-rule="evenodd" clip-rule="evenodd" d="M41.1822 55.4367C18.495 55.4367 0.103271 43.1034 0.103271 27.8895C0.103271 12.6756 18.495 0.342285 41.1822 0.342285C63.8695 0.342285 82.2611 12.6756 82.2611 27.8895C82.2611 43.1034 63.8695 55.4367 41.1822 55.4367ZM47.47 11.1123C30.2257 11.1123 16.2465 19.5439 16.2465 29.9447C16.2465 40.3456 30.2257 48.7772 47.47 48.7772C64.7142 48.7772 77.4401 43.0127 77.4401 29.9447C77.4401 16.8809 64.7142 11.1123 47.47 11.1123Z" fill="url(#paint0_linear_1389_14239)"/>
<path fill-rule="evenodd" clip-rule="evenodd" d="M62.6642 43.009C62.6642 43.009 65.1505 43.7602 66.595 44.492C67.0962 44.746 67.9634 45.2527 68.5889 45.918C69.2016 46.5697 69.5003 47.23 69.5003 47.23L79.2987 63.7719L63.4618 63.779L56.056 49.8539C56.056 49.8539 54.5395 47.2449 53.6064 46.4885C52.828 45.8575 52.4961 45.6328 51.7265 45.6328C51.1908 45.6328 47.9637 45.6328 47.9637 45.6328L47.9666 63.7689L33.9526 63.7749V17.4475H62.0946C62.0946 17.4475 74.9122 17.679 74.9122 29.8895C74.9122 42.1001 62.6642 43.009 62.6642 43.009ZM56.5687 27.4965L48.0848 27.4911L48.0806 35.3684L56.5687 35.3657C56.5687 35.3657 60.4995 35.3535 60.4995 31.3586C60.4995 27.2833 56.5687 27.4965 56.5687 27.4965Z" fill="url(#paint1_linear_1389_14239)"/>
</g>
<defs>
<linearGradient id="paint0_linear_1389_14239" x1="0.103271" y1="0.342285" x2="51.0739" y2="76.3506" gradientUnits="userSpaceOnUse">
<stop stop-color="#CBCED0"/>
<stop offset="1" stop-color="#84838B"/>
</linearGradient>
<linearGradient id="paint1_linear_1389_14239" x1="33.9526" y1="17.4475" x2="80.2734" y2="62.7831" gradientUnits="userSpaceOnUse">
<stop stop-color="#276DC3"/>
<stop offset="1" stop-color="#165CAA"/>
</linearGradient>
<clipPath id="clip0_1389_14239">
<rect width="82.4889" height="64" fill="white"/>
</clipPath>
</defs>
</svg>
